<svg width="61" height="55" viewBox="0 0 61 55" fill="none" xmlns="http://www.w3.org/2000/svg">
<path d="M9.20633 32.6389C6.67605 30.7294 4.55913 28.3402 2.98026 25.6122C1.31998 22.6633 -0.531251 16.7778 3.07157 9.73478C9.15651 -2.15898 21.3347 0.736745 24.4477 3.23983C26.4276 4.84312 30.458 8.55685 30.458 8.55685L53.3491 31.1419C53.3491 31.1419 55.5947 38.1481 47.7125 36.6962C47.7125 36.6962 49.6882 44.0582 41.7396 42.8312C41.7396 42.8312 42.5407 49.6901 35.5799 48.9048C29.8852 48.2423 14.5857 36.782 9.20633 32.6389Z" fill="#F04D56" stroke="white" stroke-width="1.5" stroke-linecap="round" stroke-linejoin="round"/>
<path d="M41.2322 42.4758L31.9844 33.3633" stroke="white" stroke-width="1.5" stroke-linecap="round" stroke-linejoin="round"/>
<path d="M47.2039 36.3404L37.5742 26.8516" stroke="white" stroke-width="1.5" stroke-linecap="round" stroke-linejoin="round"/>
<path d="M32.8614 50.9437C34.9314 48.904 35.3847 46.0438 33.874 44.5552C32.3632 43.0665 29.4605 43.5132 27.3906 45.5529C25.3206 47.5926 24.8673 50.4529 26.378 51.9415C27.8887 53.4301 30.7914 52.9834 32.8614 50.9437Z" fill="#F16370" stroke="white" stroke-width="1.5" stroke-linecap="round" stroke-linejoin="round"/>
<path d="M27.4932 46.1854C29.3159 43.9282 29.4382 41.0358 27.7664 39.7249C26.0946 38.4141 23.2617 39.1813 21.439 41.4384C19.6163 43.6956 19.4939 46.588 21.1657 47.8989C22.8375 49.2097 25.6704 48.4426 27.4932 46.1854Z" fill="#F16370" stroke="white" stroke-width="1.5" stroke-linecap="round" stroke-linejoin="round"/>
<path d="M21.8398 41.2751C23.4277 38.8518 23.2599 35.9615 21.4651 34.8196C19.6702 33.6776 16.9279 34.7163 15.34 37.1396C13.7521 39.5629 13.9199 42.4531 15.7147 43.5951C17.5096 44.737 20.2518 43.6983 21.8398 41.2751Z" fill="#F16370" stroke="white" stroke-width="1.5" stroke-linecap="round" stroke-linejoin="round"/>
<path d="M16.5237 35.6963C17.7747 33.0884 17.223 30.2449 15.2915 29.3453C13.3599 28.4456 10.7799 29.8303 9.52887 32.4382C8.27784 35.046 8.82951 37.8895 10.7611 38.7892C12.6926 39.6889 15.2727 38.3041 16.5237 35.6963Z" fill="#F16370" stroke="white" stroke-width="1.5" stroke-linecap="round" stroke-linejoin="round"/>
<path d="M26.3274 14.3316L28.5522 16.5238C29.5504 17.5311 30.888 18.1441 32.313 18.2473C33.738 18.3505 35.1521 17.9368 36.2891 17.0842L36.4053 16.9901C36.7583 16.698 37.2092 16.5462 37.6698 16.5643C38.1304 16.5825 38.5676 16.7693 38.8957 17.0883L53.1451 31.1415C53.1451 31.1415 64.626 21.9349 57.8728 9.55036C51.1196 -2.83421 38.1445 1.37033 32.7402 5.54623C30.4052 7.44189 28.2312 9.52245 26.2402 11.7671C25.9199 12.1248 25.7505 12.5897 25.7667 13.0664C25.7829 13.5432 25.9835 13.9958 26.3274 14.3316Z" fill="#F16370" stroke="white" stroke-width="1.5" stroke-linecap="round" stroke-linejoin="round"/>
</svg>
